<svg width="225" height="36" viewBox="0 0 225 36" fill="none" xmlns="http://www.w3.org/2000/svg">
    <mask id="mask0_2657_93717" style="mask-type:luminance" maskUnits="userSpaceOnUse" x="0" y="0" width="226"
          height="36">
        <path d="M23.3065 0.994141H19.9902L0 35.0063H18.8848L21.6511 29.9094L24.4173 35.0063H43.2967L23.3065 0.994141ZM21.6511 5.2198L30.6959 20.8863H12.6062L21.6511 5.2198ZM16.4398 31.5213H6.46373L10.5968 24.366H20.5729L16.4398 31.5213ZM22.7293 24.366H32.7053L36.8329 31.5213H26.8569L22.7238 24.366H22.7293ZM61.4572 34.5435H56.8558L66.6521 11.4603H71.4605L81.2568 34.5435H76.6554L74.0253 28.2485H66.3581L67.9046 24.5348H72.4788L69.059 15.7785L61.4572 34.5435ZM188.924 34.5435H184.323L194.119 11.4603H198.927L208.724 34.5435H204.122L201.492 28.2485H193.825L195.371 24.5348H199.946L196.526 15.7785L188.924 34.5435ZM96.76 11.4657V15.1795H90.1438V34.5489H85.8636V15.1741H79.2474V11.4603H96.76V11.4657ZM106.447 34.5489V11.4657H115.487C123.127 11.4657 126.949 15.1033 126.949 22.3784C126.949 30.4921 123.127 34.5489 115.487 34.5489H106.447ZM115.487 30.8351C120.273 30.8351 122.669 28.0144 122.669 22.3784C122.669 17.5809 120.273 15.1795 115.487 15.1795H110.728V30.8351H115.487ZM134.856 11.4657V34.5489H130.576V11.4657H134.856ZM158.097 33.4816C156.235 34.2984 153.904 34.7068 151.105 34.7068C142.959 34.7068 138.886 30.699 138.886 22.6833C138.886 15.0978 143.03 11.3024 151.312 11.3024C153.839 11.3024 156.099 11.6781 158.092 12.4296V16.3013C156.099 15.4409 153.948 15.0107 151.634 15.0107C146.09 15.0107 143.318 17.5646 143.318 22.6779C143.318 28.2213 145.932 30.993 151.165 30.993C151.939 30.993 152.821 30.8624 153.812 30.6064V23.8922H158.092V33.4816H158.097ZM166.413 11.4657V34.5489H162.132V11.4657H166.413ZM186.348 11.4657V15.1795H179.732V34.5489H175.452V15.1741H168.836V11.4603H186.348V11.4657ZM215.841 11.4657V30.8351H225.011V34.5489H211.566V11.4657H215.846H215.841Z"
              fill="white"/>
    </mask>
    <g mask="url(#mask0_2657_93717)">
        <path d="M225 0.994141H0V35.0063H225V0.994141Z" fill="#D9D9D9"/>
    </g>
</svg>
